<svg width="245" height="60" viewBox="0 0 245 60" fill="none" xmlns="http://www.w3.org/2000/svg">
<path d="M2.87671 59.9995C4.46548 59.9995 5.75342 58.7116 5.75342 57.1228C5.75342 55.534 4.46548 54.2461 2.87671 54.2461C1.28795 54.2461 0 55.534 0 57.1228C0 58.7116 1.28795 59.9995 2.87671 59.9995Z" fill="#353535"/>
<path d="M231.37 49.3149C232.959 49.3149 234.247 48.027 234.247 46.4382C234.247 44.8495 232.959 43.5615 231.37 43.5615C229.781 43.5615 228.493 44.8495 228.493 46.4382C228.493 48.027 229.781 49.3149 231.37 49.3149Z" fill="#353535"/>
<path d="M242.055 49.3149C243.644 49.3149 244.932 48.027 244.932 46.4382C244.932 44.8495 243.644 43.5615 242.055 43.5615C240.466 43.5615 239.178 44.8495 239.178 46.4382C239.178 48.027 240.466 49.3149 242.055 49.3149Z" fill="#353535"/>
<path d="M78.9042 27.1229C80.266 27.1229 81.37 26.019 81.37 24.6572C81.37 23.2954 80.266 22.1914 78.9042 22.1914C77.5424 22.1914 76.4385 23.2954 76.4385 24.6572C76.4385 26.019 77.5424 27.1229 78.9042 27.1229Z" fill="#353535"/>
<path d="M89.9998 27.1229C91.5885 27.1229 92.8765 26.019 92.8765 24.6572C92.8765 23.2954 91.5885 22.1914 89.9998 22.1914C88.411 22.1914 87.123 23.2954 87.123 24.6572C87.123 26.019 88.411 27.1229 89.9998 27.1229Z" fill="#353535"/>
<path d="M176.712 5.75342C178.074 5.75342 179.178 4.46548 179.178 2.87671C179.178 1.28795 178.074 0 176.712 0C175.351 0 174.247 1.28795 174.247 2.87671C174.247 4.46548 175.351 5.75342 176.712 5.75342Z" fill="#353535"/>
<path d="M187.808 5.75342C189.397 5.75342 190.685 4.46548 190.685 2.87671C190.685 1.28795 189.397 0 187.808 0C186.22 0 184.932 1.28795 184.932 2.87671C184.932 4.46548 186.22 5.75342 187.808 5.75342Z" fill="#353535"/>
<path d="M35.3427 38.6304C36.7045 38.6304 37.8085 37.3424 37.8085 35.7537C37.8085 34.1649 36.7045 32.877 35.3427 32.877C33.9809 32.877 32.877 34.1649 32.877 35.7537C32.877 37.3424 33.9809 38.6304 35.3427 38.6304Z" fill="#353535"/>
<path d="M46.0273 38.6304C47.3891 38.6304 48.493 37.3424 48.493 35.7537C48.493 34.1649 47.3891 32.877 46.0273 32.877C44.6655 32.877 43.5615 34.1649 43.5615 35.7537C43.5615 37.3424 44.6655 38.6304 46.0273 38.6304Z" fill="#353535"/>
<path d="M57.1233 38.6304C58.7121 38.6304 60 37.3424 60 35.7537C60 34.1649 58.7121 32.877 57.1233 32.877C55.5345 32.877 54.2466 34.1649 54.2466 35.7537C54.2466 37.3424 55.5345 38.6304 57.1233 38.6304Z" fill="#353535"/>
<path d="M68.2192 38.6304C69.581 38.6304 70.6849 37.3424 70.6849 35.7537C70.6849 34.1649 69.581 32.877 68.2192 32.877C66.8574 32.877 65.7534 34.1649 65.7534 35.7537C65.7534 37.3424 66.8574 38.6304 68.2192 38.6304Z" fill="#353535"/>
<path d="M13.5618 49.3149C15.1505 49.3149 16.4385 48.027 16.4385 46.4382C16.4385 44.8495 15.1505 43.5615 13.5618 43.5615C11.973 43.5615 10.6851 44.8495 10.6851 46.4382C10.6851 48.027 11.973 49.3149 13.5618 49.3149Z" fill="#353535"/>
<path d="M24.2463 49.3149C25.8351 49.3149 27.1231 48.027 27.1231 46.4382C27.1231 44.8495 25.8351 43.5615 24.2463 43.5615C22.6576 43.5615 21.3696 44.8495 21.3696 46.4382C21.3696 48.027 22.6576 49.3149 24.2463 49.3149Z" fill="#353535"/>
<path d="M144.246 38.6304C145.835 38.6304 147.123 37.3424 147.123 35.7537C147.123 34.1649 145.835 32.877 144.246 32.877C142.658 32.877 141.37 34.1649 141.37 35.7537C141.37 37.3424 142.658 38.6304 144.246 38.6304Z" fill="#353535"/>
<path d="M220.685 38.6304C222.274 38.6304 223.562 37.3424 223.562 35.7537C223.562 34.1649 222.274 32.877 220.685 32.877C219.096 32.877 217.808 34.1649 217.808 35.7537C217.808 37.3424 219.096 38.6304 220.685 38.6304Z" fill="#353535"/>
<path d="M100.685 27.1229C102.274 27.1229 103.562 26.019 103.562 24.6572C103.562 23.2954 102.274 22.1914 100.685 22.1914C99.0961 22.1914 97.8081 23.2954 97.8081 24.6572C97.8081 26.019 99.0961 27.1229 100.685 27.1229Z" fill="#353535"/>
<path d="M133.562 27.1229C135.151 27.1229 136.438 26.019 136.438 24.6572C136.438 23.2954 135.151 22.1914 133.562 22.1914C131.973 22.1914 130.685 23.2954 130.685 24.6572C130.685 26.019 131.973 27.1229 133.562 27.1229Z" fill="#353535"/>
<path d="M154.931 27.1229C156.52 27.1229 157.808 26.019 157.808 24.6572C157.808 23.2954 156.52 22.1914 154.931 22.1914C153.343 22.1914 152.055 23.2954 152.055 24.6572C152.055 26.019 153.343 27.1229 154.931 27.1229Z" fill="#353535"/>
<path d="M209.589 27.1229C210.951 27.1229 212.055 26.019 212.055 24.6572C212.055 23.2954 210.951 22.1914 209.589 22.1914C208.227 22.1914 207.123 23.2954 207.123 24.6572C207.123 26.019 208.227 27.1229 209.589 27.1229Z" fill="#353535"/>
<path d="M111.37 16.4383C112.959 16.4383 114.247 15.3344 114.247 13.9726C114.247 12.6108 112.959 11.5068 111.37 11.5068C109.781 11.5068 108.493 12.6108 108.493 13.9726C108.493 15.3344 109.781 16.4383 111.37 16.4383Z" fill="#353535"/>
<path d="M122.466 16.4383C123.828 16.4383 124.932 15.3344 124.932 13.9726C124.932 12.6108 123.828 11.5068 122.466 11.5068C121.104 11.5068 120 12.6108 120 13.9726C120 15.3344 121.104 16.4383 122.466 16.4383Z" fill="#353535"/>
<path d="M166.027 16.4383C167.389 16.4383 168.493 15.3344 168.493 13.9726C168.493 12.6108 167.389 11.5068 166.027 11.5068C164.665 11.5068 163.562 12.6108 163.562 13.9726C163.562 15.3344 164.665 16.4383 166.027 16.4383Z" fill="#353535"/>
<path d="M198.904 16.4383C200.266 16.4383 201.37 15.3344 201.37 13.9726C201.37 12.6108 200.266 11.5068 198.904 11.5068C197.542 11.5068 196.438 12.6108 196.438 13.9726C196.438 15.3344 197.542 16.4383 198.904 16.4383Z" fill="#353535"/>
<path d="M13.5618 59.9995C15.1505 59.9995 16.4385 58.7116 16.4385 57.1228C16.4385 55.534 15.1505 54.2461 13.5618 54.2461C11.973 54.2461 10.6851 55.534 10.6851 57.1228C10.6851 58.7116 11.973 59.9995 13.5618 59.9995Z" fill="#878787"/>
<path d="M24.2463 59.9995C25.8351 59.9995 27.1231 58.7116 27.1231 57.1228C27.1231 55.534 25.8351 54.2461 24.2463 54.2461C22.6576 54.2461 21.3696 55.534 21.3696 57.1228C21.3696 58.7116 22.6576 59.9995 24.2463 59.9995Z" fill="#878787"/>
<path d="M35.3427 59.9995C36.7045 59.9995 37.8085 58.7116 37.8085 57.1228C37.8085 55.534 36.7045 54.2461 35.3427 54.2461C33.9809 54.2461 32.877 55.534 32.877 57.1228C32.877 58.7116 33.9809 59.9995 35.3427 59.9995Z" fill="#878787"/>
<path d="M46.0273 59.9995C47.3891 59.9995 48.493 58.7116 48.493 57.1228C48.493 55.534 47.3891 54.2461 46.0273 54.2461C44.6655 54.2461 43.5615 55.534 43.5615 57.1228C43.5615 58.7116 44.6655 59.9995 46.0273 59.9995Z" fill="#878787"/>
<path d="M57.1233 59.9995C58.7121 59.9995 60 58.7116 60 57.1228C60 55.534 58.7121 54.2461 57.1233 54.2461C55.5345 54.2461 54.2466 55.534 54.2466 57.1228C54.2466 58.7116 55.5345 59.9995 57.1233 59.9995Z" fill="#878787"/>
<path d="M133.562 59.9995C135.151 59.9995 136.438 58.7116 136.438 57.1228C136.438 55.534 135.151 54.2461 133.562 54.2461C131.973 54.2461 130.685 55.534 130.685 57.1228C130.685 58.7116 131.973 59.9995 133.562 59.9995Z" fill="#878787"/>
<path d="M144.246 59.9995C145.835 59.9995 147.123 58.7116 147.123 57.1228C147.123 55.534 145.835 54.2461 144.246 54.2461C142.658 54.2461 141.37 55.534 141.37 57.1228C141.37 58.7116 142.658 59.9995 144.246 59.9995Z" fill="#878787"/>
<path d="M154.931 59.9995C156.52 59.9995 157.808 58.7116 157.808 57.1228C157.808 55.534 156.52 54.2461 154.931 54.2461C153.343 54.2461 152.055 55.534 152.055 57.1228C152.055 58.7116 153.343 59.9995 154.931 59.9995Z" fill="#878787"/>
<path d="M166.027 59.9995C167.389 59.9995 168.493 58.7116 168.493 57.1228C168.493 55.534 167.389 54.2461 166.027 54.2461C164.665 54.2461 163.562 55.534 163.562 57.1228C163.562 58.7116 164.665 59.9995 166.027 59.9995Z" fill="#878787"/>
<path d="M176.712 59.9995C178.074 59.9995 179.178 58.7116 179.178 57.1228C179.178 55.534 178.074 54.2461 176.712 54.2461C175.351 54.2461 174.247 55.534 174.247 57.1228C174.247 58.7116 175.351 59.9995 176.712 59.9995Z" fill="#878787"/>
<path d="M187.808 59.9995C189.397 59.9995 190.685 58.7116 190.685 57.1228C190.685 55.534 189.397 54.2461 187.808 54.2461C186.22 54.2461 184.932 55.534 184.932 57.1228C184.932 58.7116 186.22 59.9995 187.808 59.9995Z" fill="#878787"/>
<path d="M198.904 59.9995C200.266 59.9995 201.37 58.7116 201.37 57.1228C201.37 55.534 200.266 54.2461 198.904 54.2461C197.542 54.2461 196.438 55.534 196.438 57.1228C196.438 58.7116 197.542 59.9995 198.904 59.9995Z" fill="#878787"/>
<path d="M166.027 27.1229C167.389 27.1229 168.493 26.019 168.493 24.6572C168.493 23.2954 167.389 22.1914 166.027 22.1914C164.665 22.1914 163.562 23.2954 163.562 24.6572C163.562 26.019 164.665 27.1229 166.027 27.1229Z" fill="#878787"/>
<path d="M176.712 27.1229C178.074 27.1229 179.178 26.019 179.178 24.6572C179.178 23.2954 178.074 22.1914 176.712 22.1914C175.351 22.1914 174.247 23.2954 174.247 24.6572C174.247 26.019 175.351 27.1229 176.712 27.1229Z" fill="#878787"/>
<path d="M187.808 27.1229C189.397 27.1229 190.685 26.019 190.685 24.6572C190.685 23.2954 189.397 22.1914 187.808 22.1914C186.22 22.1914 184.932 23.2954 184.932 24.6572C184.932 26.019 186.22 27.1229 187.808 27.1229Z" fill="#878787"/>
<path d="M176.712 16.4383C178.074 16.4383 179.178 15.3344 179.178 13.9726C179.178 12.6108 178.074 11.5068 176.712 11.5068C175.351 11.5068 174.247 12.6108 174.247 13.9726C174.247 15.3344 175.351 16.4383 176.712 16.4383Z" fill="#878787"/>
<path d="M187.808 16.4383C189.397 16.4383 190.685 15.3344 190.685 13.9726C190.685 12.6108 189.397 11.5068 187.808 11.5068C186.22 11.5068 184.932 12.6108 184.932 13.9726C184.932 15.3344 186.22 16.4383 187.808 16.4383Z" fill="#878787"/>
<path d="M198.904 27.1229C200.266 27.1229 201.37 26.019 201.37 24.6572C201.37 23.2954 200.266 22.1914 198.904 22.1914C197.542 22.1914 196.438 23.2954 196.438 24.6572C196.438 26.019 197.542 27.1229 198.904 27.1229Z" fill="#878787"/>
<path d="M209.589 59.9995C210.951 59.9995 212.055 58.7116 212.055 57.1228C212.055 55.534 210.951 54.2461 209.589 54.2461C208.227 54.2461 207.123 55.534 207.123 57.1228C207.123 58.7116 208.227 59.9995 209.589 59.9995Z" fill="#878787"/>
<path d="M154.931 38.6304C156.52 38.6304 157.808 37.3424 157.808 35.7537C157.808 34.1649 156.52 32.877 154.931 32.877C153.343 32.877 152.055 34.1649 152.055 35.7537C152.055 37.3424 153.343 38.6304 154.931 38.6304Z" fill="#878787"/>
<path d="M166.027 38.6304C167.389 38.6304 168.493 37.3424 168.493 35.7537C168.493 34.1649 167.389 32.877 166.027 32.877C164.665 32.877 163.562 34.1649 163.562 35.7537C163.562 37.3424 164.665 38.6304 166.027 38.6304Z" fill="#878787"/>
<path d="M176.712 38.6304C178.074 38.6304 179.178 37.3424 179.178 35.7537C179.178 34.1649 178.074 32.877 176.712 32.877C175.351 32.877 174.247 34.1649 174.247 35.7537C174.247 37.3424 175.351 38.6304 176.712 38.6304Z" fill="#878787"/>
<path d="M187.808 38.6304C189.397 38.6304 190.685 37.3424 190.685 35.7537C190.685 34.1649 189.397 32.877 187.808 32.877C186.22 32.877 184.932 34.1649 184.932 35.7537C184.932 37.3424 186.22 38.6304 187.808 38.6304Z" fill="#878787"/>
<path d="M198.904 38.6304C200.266 38.6304 201.37 37.3424 201.37 35.7537C201.37 34.1649 200.266 32.877 198.904 32.877C197.542 32.877 196.438 34.1649 196.438 35.7537C196.438 37.3424 197.542 38.6304 198.904 38.6304Z" fill="#878787"/>
<path d="M209.589 38.6304C210.951 38.6304 212.055 37.3424 212.055 35.7537C212.055 34.1649 210.951 32.877 209.589 32.877C208.227 32.877 207.123 34.1649 207.123 35.7537C207.123 37.3424 208.227 38.6304 209.589 38.6304Z" fill="#878787"/>
<path d="M220.685 59.9995C222.274 59.9995 223.562 58.7116 223.562 57.1228C223.562 55.534 222.274 54.2461 220.685 54.2461C219.096 54.2461 217.808 55.534 217.808 57.1228C217.808 58.7116 219.096 59.9995 220.685 59.9995Z" fill="#878787"/>
<path d="M231.37 59.9995C232.959 59.9995 234.247 58.7116 234.247 57.1228C234.247 55.534 232.959 54.2461 231.37 54.2461C229.781 54.2461 228.493 55.534 228.493 57.1228C228.493 58.7116 229.781 59.9995 231.37 59.9995Z" fill="#878787"/>
<path d="M242.055 59.9995C243.644 59.9995 244.932 58.7116 244.932 57.1228C244.932 55.534 243.644 54.2461 242.055 54.2461C240.466 54.2461 239.178 55.534 239.178 57.1228C239.178 58.7116 240.466 59.9995 242.055 59.9995Z" fill="#878787"/>
<path d="M68.2192 59.9995C69.581 59.9995 70.6849 58.7116 70.6849 57.1228C70.6849 55.534 69.581 54.2461 68.2192 54.2461C66.8574 54.2461 65.7534 55.534 65.7534 57.1228C65.7534 58.7116 66.8574 59.9995 68.2192 59.9995Z" fill="#878787"/>
<path d="M78.9042 59.9995C80.266 59.9995 81.37 58.7116 81.37 57.1228C81.37 55.534 80.266 54.2461 78.9042 54.2461C77.5424 54.2461 76.4385 55.534 76.4385 57.1228C76.4385 58.7116 77.5424 59.9995 78.9042 59.9995Z" fill="#878787"/>
<path d="M89.9998 59.9995C91.5885 59.9995 92.8765 58.7116 92.8765 57.1228C92.8765 55.534 91.5885 54.2461 89.9998 54.2461C88.411 54.2461 87.123 55.534 87.123 57.1228C87.123 58.7116 88.411 59.9995 89.9998 59.9995Z" fill="#878787"/>
<path d="M100.685 59.9995C102.274 59.9995 103.562 58.7116 103.562 57.1228C103.562 55.534 102.274 54.2461 100.685 54.2461C99.0961 54.2461 97.8081 55.534 97.8081 57.1228C97.8081 58.7116 99.0961 59.9995 100.685 59.9995Z" fill="#878787"/>
<path d="M111.37 59.9995C112.959 59.9995 114.247 58.7116 114.247 57.1228C114.247 55.534 112.959 54.2461 111.37 54.2461C109.781 54.2461 108.493 55.534 108.493 57.1228C108.493 58.7116 109.781 59.9995 111.37 59.9995Z" fill="#878787"/>
<path d="M122.466 59.9995C123.828 59.9995 124.932 58.7116 124.932 57.1228C124.932 55.534 123.828 54.2461 122.466 54.2461C121.104 54.2461 120 55.534 120 57.1228C120 58.7116 121.104 59.9995 122.466 59.9995Z" fill="#878787"/>
<path d="M35.3427 49.3149C36.7045 49.3149 37.8085 48.027 37.8085 46.4382C37.8085 44.8495 36.7045 43.5615 35.3427 43.5615C33.9809 43.5615 32.877 44.8495 32.877 46.4382C32.877 48.027 33.9809 49.3149 35.3427 49.3149Z" fill="#878787"/>
<path d="M46.0273 49.3149C47.3891 49.3149 48.493 48.027 48.493 46.4382C48.493 44.8495 47.3891 43.5615 46.0273 43.5615C44.6655 43.5615 43.5615 44.8495 43.5615 46.4382C43.5615 48.027 44.6655 49.3149 46.0273 49.3149Z" fill="#878787"/>
<path d="M57.1233 49.3149C58.7121 49.3149 60 48.027 60 46.4382C60 44.8495 58.7121 43.5615 57.1233 43.5615C55.5345 43.5615 54.2466 44.8495 54.2466 46.4382C54.2466 48.027 55.5345 49.3149 57.1233 49.3149Z" fill="#878787"/>
<path d="M133.562 49.3149C135.151 49.3149 136.438 48.027 136.438 46.4382C136.438 44.8495 135.151 43.5615 133.562 43.5615C131.973 43.5615 130.685 44.8495 130.685 46.4382C130.685 48.027 131.973 49.3149 133.562 49.3149Z" fill="#878787"/>
<path d="M144.246 49.3149C145.835 49.3149 147.123 48.027 147.123 46.4382C147.123 44.8495 145.835 43.5615 144.246 43.5615C142.658 43.5615 141.37 44.8495 141.37 46.4382C141.37 48.027 142.658 49.3149 144.246 49.3149Z" fill="#878787"/>
<path d="M154.931 49.3149C156.52 49.3149 157.808 48.027 157.808 46.4382C157.808 44.8495 156.52 43.5615 154.931 43.5615C153.343 43.5615 152.055 44.8495 152.055 46.4382C152.055 48.027 153.343 49.3149 154.931 49.3149Z" fill="#878787"/>
<path d="M166.027 49.3149C167.389 49.3149 168.493 48.027 168.493 46.4382C168.493 44.8495 167.389 43.5615 166.027 43.5615C164.665 43.5615 163.562 44.8495 163.562 46.4382C163.562 48.027 164.665 49.3149 166.027 49.3149Z" fill="#878787"/>
<path d="M176.712 49.3149C178.074 49.3149 179.178 48.027 179.178 46.4382C179.178 44.8495 178.074 43.5615 176.712 43.5615C175.351 43.5615 174.247 44.8495 174.247 46.4382C174.247 48.027 175.351 49.3149 176.712 49.3149Z" fill="#878787"/>
<path d="M187.808 49.3149C189.397 49.3149 190.685 48.027 190.685 46.4382C190.685 44.8495 189.397 43.5615 187.808 43.5615C186.22 43.5615 184.932 44.8495 184.932 46.4382C184.932 48.027 186.22 49.3149 187.808 49.3149Z" fill="#878787"/>
<path d="M198.904 49.3149C200.266 49.3149 201.37 48.027 201.37 46.4382C201.37 44.8495 200.266 43.5615 198.904 43.5615C197.542 43.5615 196.438 44.8495 196.438 46.4382C196.438 48.027 197.542 49.3149 198.904 49.3149Z" fill="#878787"/>
<path d="M209.589 49.3149C210.951 49.3149 212.055 48.027 212.055 46.4382C212.055 44.8495 210.951 43.5615 209.589 43.5615C208.227 43.5615 207.123 44.8495 207.123 46.4382C207.123 48.027 208.227 49.3149 209.589 49.3149Z" fill="#878787"/>
<path d="M220.685 49.3149C222.274 49.3149 223.562 48.027 223.562 46.4382C223.562 44.8495 222.274 43.5615 220.685 43.5615C219.096 43.5615 217.808 44.8495 217.808 46.4382C217.808 48.027 219.096 49.3149 220.685 49.3149Z" fill="#878787"/>
<path d="M68.2192 49.3149C69.581 49.3149 70.6849 48.027 70.6849 46.4382C70.6849 44.8495 69.581 43.5615 68.2192 43.5615C66.8574 43.5615 65.7534 44.8495 65.7534 46.4382C65.7534 48.027 66.8574 49.3149 68.2192 49.3149Z" fill="#878787"/>
<path d="M78.9042 49.3149C80.266 49.3149 81.37 48.027 81.37 46.4382C81.37 44.8495 80.266 43.5615 78.9042 43.5615C77.5424 43.5615 76.4385 44.8495 76.4385 46.4382C76.4385 48.027 77.5424 49.3149 78.9042 49.3149Z" fill="#878787"/>
<path d="M89.9998 49.3149C91.5885 49.3149 92.8765 48.027 92.8765 46.4382C92.8765 44.8495 91.5885 43.5615 89.9998 43.5615C88.411 43.5615 87.123 44.8495 87.123 46.4382C87.123 48.027 88.411 49.3149 89.9998 49.3149Z" fill="#878787"/>
<path d="M100.685 49.3149C102.274 49.3149 103.562 48.027 103.562 46.4382C103.562 44.8495 102.274 43.5615 100.685 43.5615C99.0961 43.5615 97.8081 44.8495 97.8081 46.4382C97.8081 48.027 99.0961 49.3149 100.685 49.3149Z" fill="#878787"/>
<path d="M111.37 49.3149C112.959 49.3149 114.247 48.027 114.247 46.4382C114.247 44.8495 112.959 43.5615 111.37 43.5615C109.781 43.5615 108.493 44.8495 108.493 46.4382C108.493 48.027 109.781 49.3149 111.37 49.3149Z" fill="#878787"/>
<path d="M122.466 49.3149C123.828 49.3149 124.932 48.027 124.932 46.4382C124.932 44.8495 123.828 43.5615 122.466 43.5615C121.104 43.5615 120 44.8495 120 46.4382C120 48.027 121.104 49.3149 122.466 49.3149Z" fill="#878787"/>
<path d="M133.562 38.6304C135.151 38.6304 136.438 37.3424 136.438 35.7537C136.438 34.1649 135.151 32.877 133.562 32.877C131.973 32.877 130.685 34.1649 130.685 35.7537C130.685 37.3424 131.973 38.6304 133.562 38.6304Z" fill="#878787"/>
<path d="M78.9042 38.6304C80.266 38.6304 81.37 37.3424 81.37 35.7537C81.37 34.1649 80.266 32.877 78.9042 32.877C77.5424 32.877 76.4385 34.1649 76.4385 35.7537C76.4385 37.3424 77.5424 38.6304 78.9042 38.6304Z" fill="#878787"/>
<path d="M89.9998 38.6304C91.5885 38.6304 92.8765 37.3424 92.8765 35.7537C92.8765 34.1649 91.5885 32.877 89.9998 32.877C88.411 32.877 87.123 34.1649 87.123 35.7537C87.123 37.3424 88.411 38.6304 89.9998 38.6304Z" fill="#878787"/>
<path d="M100.685 38.6304C102.274 38.6304 103.562 37.3424 103.562 35.7537C103.562 34.1649 102.274 32.877 100.685 32.877C99.0961 32.877 97.8081 34.1649 97.8081 35.7537C97.8081 37.3424 99.0961 38.6304 100.685 38.6304Z" fill="#878787"/>
<path d="M111.37 38.6304C112.959 38.6304 114.247 37.3424 114.247 35.7537C114.247 34.1649 112.959 32.877 111.37 32.877C109.781 32.877 108.493 34.1649 108.493 35.7537C108.493 37.3424 109.781 38.6304 111.37 38.6304Z" fill="#878787"/>
<path d="M122.466 38.6304C123.828 38.6304 124.932 37.3424 124.932 35.7537C124.932 34.1649 123.828 32.877 122.466 32.877C121.104 32.877 120 34.1649 120 35.7537C120 37.3424 121.104 38.6304 122.466 38.6304Z" fill="#878787"/>
<path d="M111.37 27.1229C112.959 27.1229 114.247 26.019 114.247 24.6572C114.247 23.2954 112.959 22.1914 111.37 22.1914C109.781 22.1914 108.493 23.2954 108.493 24.6572C108.493 26.019 109.781 27.1229 111.37 27.1229Z" fill="#878787"/>
<path d="M122.466 27.1229C123.828 27.1229 124.932 26.019 124.932 24.6572C124.932 23.2954 123.828 22.1914 122.466 22.1914C121.104 22.1914 120 23.2954 120 24.6572C120 26.019 121.104 27.1229 122.466 27.1229Z" fill="#878787"/>
</svg>
